<mxfile host="app.diagrams.net" modified="2023-03-07T11:48:28.793Z" agent="5.0 (X11; Ubuntu)" etag="A4LZoI66uSFS3XFNi_pp" version="21.0.2" type="github">
  <diagram name="Page-1" id="SKLvr-yh19j2k4rbDxnk">
    <mxGraphModel dx="1226" dy="568" grid="1" gridSize="10" guides="1" tooltips="1" connect="1" arrows="1" fold="1" page="1" pageScale="1" pageWidth="827" pageHeight="1169" math="0" shadow="0">
      <root>
        <mxCell id="0" />
        <mxCell id="1" parent="0" />
        <mxCell id="YMkFfzjEfmS2Q9vUWcUY-1" value="&lt;div&gt;&lt;b&gt;NameNode&lt;/b&gt;&lt;/div&gt;&lt;div&gt;group13-node1&lt;/div&gt;&lt;div&gt;&lt;i&gt;192.168.2.197&lt;/i&gt;&lt;/div&gt;" style="rounded=1;whiteSpace=wrap;html=1;fillColor=#dae8fc;strokeColor=#6c8ebf;" parent="1" vertex="1">
          <mxGeometry x="220" y="80" width="150" height="80" as="geometry" />
        </mxCell>
        <mxCell id="YMkFfzjEfmS2Q9vUWcUY-2" value="&lt;div&gt;&lt;b&gt;DataNode&lt;/b&gt;&lt;/div&gt;&lt;div&gt;group13-node2&lt;/div&gt;&lt;div&gt;192.168.2.223&lt;/div&gt;" style="ellipse;whiteSpace=wrap;html=1;aspect=fixed;" parent="1" vertex="1">
          <mxGeometry x="80" y="210" width="100" height="100" as="geometry" />
        </mxCell>
        <mxCell id="YMkFfzjEfmS2Q9vUWcUY-3" value="&lt;div&gt;&lt;b&gt;DataNode&lt;/b&gt;&lt;/div&gt;&lt;div&gt;group13-node3&lt;/div&gt;&lt;div&gt;192.168.2.157&lt;/div&gt;" style="ellipse;whiteSpace=wrap;html=1;aspect=fixed;" parent="1" vertex="1">
          <mxGeometry x="190" y="210" width="100" height="100" as="geometry" />
        </mxCell>
        <mxCell id="YMkFfzjEfmS2Q9vUWcUY-4" value="&lt;div&gt;&lt;b&gt;DataNode&lt;/b&gt;&lt;/div&gt;&lt;div&gt;group13-node4&lt;/div&gt;&lt;div&gt;192.168.2.85&lt;/div&gt;" style="ellipse;whiteSpace=wrap;html=1;aspect=fixed;" parent="1" vertex="1">
          <mxGeometry x="300" y="210" width="100" height="100" as="geometry" />
        </mxCell>
        <mxCell id="YMkFfzjEfmS2Q9vUWcUY-5" value="&lt;div&gt;&lt;b&gt;DataNode&lt;/b&gt;&lt;/div&gt;&lt;div&gt;group13-node5&lt;/div&gt;&lt;div&gt;192.168.2.167&lt;/div&gt;" style="ellipse;whiteSpace=wrap;html=1;aspect=fixed;" parent="1" vertex="1">
          <mxGeometry x="414" y="210" width="100" height="100" as="geometry" />
        </mxCell>
      </root>
    </mxGraphModel>
  </diagram>
</mxfile>
